<svg id="Layer_1" data-name="Layer 1" xmlns="http://www.w3.org/2000/svg" viewBox="0 0 33.06 33.83">
  <defs>
    <style>
      .cls-1 {
        fill: #bba9d3;
      }

      .cls-2, .cls-4 {
        fill: #68368c;
      }

      .cls-3 {
        fill: #3c2b5b;
      }

      .cls-4 {
        opacity: 0.97;
      }
    </style>
  </defs>
  <title>crone</title>
  <g>
    <g>
      <path class="cls-1" d="M25.63,32.27h1.53a10.22,10.22,0,0,1-1.61-5.1H21.91a9.73,9.73,0,0,0,1.74,5.1Z"/>
      <path class="cls-2" d="M21.92,26.06h3.63A18.08,18.08,0,0,1,26.69,21h-3.6A17.92,17.92,0,0,0,21.92,26.06Z"/>
      <path class="cls-2" d="M29.2,14.74H25.62c-.35.9-.74,1.81-1.11,2.69s-.68,1.61-1,2.42H27.1c.35-.9.73-1.81,1.1-2.68S28.88,15.55,29.2,14.74Z"/>
      <path class="cls-3" d="M26,13.63h3.59a17.5,17.5,0,0,0,1.18-5.1H27.17A18,18,0,0,1,26,13.63Z"/>
      <path class="cls-3" d="M30.81,7.42a9.76,9.76,0,0,0-1.74-5.1H25.56a10.25,10.25,0,0,1,1.61,5.1Z"/>
      <path class="cls-1" d="M21,32.27h1.53a10.22,10.22,0,0,1-1.61-5.1H17.27A9.64,9.64,0,0,0,19,32.27Z"/>
      <path class="cls-2" d="M17.27,26.06h3.65A17.68,17.68,0,0,1,22.05,21h-3.6A18,18,0,0,0,17.27,26.06Z"/>
      <path class="cls-4" d="M24.57,14.74H21c-.34.9-.73,1.81-1.1,2.69s-.68,1.61-1,2.42h3.59c.35-.9.74-1.81,1.11-2.68S24.25,15.55,24.57,14.74Z"/>
      <path class="cls-3" d="M21.39,13.63H25a18.18,18.18,0,0,0,1.18-5.1H22.52A17.62,17.62,0,0,1,21.39,13.63Z"/>
      <path class="cls-3" d="M26.17,7.42a9.67,9.67,0,0,0-1.74-5.1H20.92a10.25,10.25,0,0,1,1.61,5.1Z"/>
      <path class="cls-1" d="M16.35,32.27h1.53a10.22,10.22,0,0,1-1.61-5.1H12.63a9.64,9.64,0,0,0,1.74,5.1Z"/>
      <path class="cls-2" d="M12.63,26.06h3.64A18.08,18.08,0,0,1,17.41,21h-3.6A18.33,18.33,0,0,0,12.63,26.06Z"/>
      <path class="cls-2" d="M19.93,14.74h-3.6c-.34.9-.73,1.81-1.1,2.69s-.68,1.61-1,2.42h3.59c.35-.9.73-1.81,1.11-2.68S19.61,15.55,19.93,14.74Z"/>
      <path class="cls-3" d="M16.75,13.63h3.6a17.78,17.78,0,0,0,1.17-5.1H17.88A17.62,17.62,0,0,1,16.75,13.63Z"/>
      <path class="cls-3" d="M21.53,7.42a9.76,9.76,0,0,0-1.74-5.1H16.28a10.25,10.25,0,0,1,1.61,5.1Z"/>
    </g>
    <path class="cls-3" d="M8.49,28.26H8.32a2.3,2.3,0,0,1-1.69-.67,2.25,2.25,0,0,1-.3-2.32,21.5,21.5,0,0,1,1.78-3.63,22.2,22.2,0,0,1,1.71-2.41l.25-.33.1-.11,0-.06h0l-.52-.37-.17-.11A.61.61,0,0,1,9.29,18a.53.53,0,0,1,.2-.58,2.11,2.11,0,0,1,.31-.21,4.68,4.68,0,0,1-.39-.38,2.84,2.84,0,0,1-.4-.52,1.42,1.42,0,0,1-.21-.67,1.1,1.1,0,0,0-.06-.37C8.65,15,8.56,15,8.53,15a1,1,0,0,0-.32,0,16.25,16.25,0,0,0-1.67.54,11,11,0,0,1-2.91.75,1.4,1.4,0,0,1-.81-.14,1.12,1.12,0,0,1-.55-.86,2,2,0,0,1,.09-.83A7.65,7.65,0,0,1,4,11.75,9.09,9.09,0,0,1,8.77,8.46a4.29,4.29,0,0,1,.83-.1l-.14-.29a2.76,2.76,0,0,1-.38-1.7,3.4,3.4,0,0,1,.69-1.48L10.82,3.5a2.69,2.69,0,0,1,.71-.72,2.45,2.45,0,0,1,1.4-.32l1.2,0h0a.42.42,0,0,1,0,.84l-1.23,0a1.69,1.69,0,0,0-.94.18,2.23,2.23,0,0,0-.49.52L10.44,5.39A2.59,2.59,0,0,0,9.91,6.5a2,2,0,0,0,.31,1.2,4.32,4.32,0,0,1,.38,1,.41.41,0,0,1-.1.35.39.39,0,0,1-.33.15,5.12,5.12,0,0,0-1.23.07,8.35,8.35,0,0,0-4.31,3,6.83,6.83,0,0,0-1.46,2.43,1.17,1.17,0,0,0-.07.49.37.37,0,0,0,.13.24.72.72,0,0,0,.34,0,9.84,9.84,0,0,0,2.68-.7A15,15,0,0,1,8,14.22a1.53,1.53,0,0,1,.66-.05,1.17,1.17,0,0,1,.84.71,1.93,1.93,0,0,1,.13.67.72.72,0,0,0,.1.29,2.06,2.06,0,0,0,.29.37,3.23,3.23,0,0,0,.51.47h0a.48.48,0,0,1,.29.09.43.43,0,0,1,.18.38c0,.29-.27.43-.51.56l-.16.09h0l.3.21c.42.28.55.59.41.93a1.68,1.68,0,0,1-.26.38l-.07.09-.26.33a22.59,22.59,0,0,0-1.65,2.32,19.71,19.71,0,0,0-1.7,3.48A1.51,1.51,0,0,0,7.24,27a1.54,1.54,0,0,0,1.1.4,5.88,5.88,0,0,0,2.2-.35.42.42,0,0,1,.29.79A6.69,6.69,0,0,1,8.49,28.26ZM10.6,17.53h0Zm0-.82Z"/>
  </g>
</svg>
