<svg id="Layer_1" data-name="Layer 1" xmlns="http://www.w3.org/2000/svg" viewBox="0 0 140.47 33.83">
  <defs>
    <style>
      .cls-1 {
        fill: #3c2b5b;
      }

      .cls-2 {
        fill: #bba9d3;
      }

      .cls-3, .cls-4 {
        fill: #68368c;
      }

      .cls-4 {
        opacity: 0.97;
      }
    </style>
  </defs>
  <title>crone</title>
  <g>
    <g>
      <path class="cls-1" d="M58.4,21.6a3,3,0,0,1,0,.42,1.3,1.3,0,0,1-.14.39,7.25,7.25,0,0,1-1.43,2.13,10.61,10.61,0,0,1-2,1.71,10.21,10.21,0,0,1-3.37,1.48,15.85,15.85,0,0,1-3.65.43,12.61,12.61,0,0,1-6.5-1.61,10.65,10.65,0,0,1-4.18-4.46,14.35,14.35,0,0,1-1.44-6.55,16,16,0,0,1,.81-5.15,12.5,12.5,0,0,1,2.36-4.21,10.88,10.88,0,0,1,3.81-2.86,12.19,12.19,0,0,1,5.14-1,8.4,8.4,0,0,1,2.7.44l2.59.9A9.8,9.8,0,0,0,54.61,4c.53.09,1,.16,1.57.21,0,.52.06,1,.11,1.53s.1,1,.17,1.54.16.94.27,1.43a7.1,7.1,0,0,1,.16,1.46,1.66,1.66,0,0,1-.23.91,1,1,0,0,1-.87.36.55.55,0,0,1-.52-.39A4.48,4.48,0,0,1,55,10.3c-.06-.27-.13-.52-.2-.76a11,11,0,0,0-1-2.45A6.68,6.68,0,0,0,52.27,5,4.75,4.75,0,0,0,51,4.26a12,12,0,0,0-1.69-.64,5.77,5.77,0,0,0-1.47-.25,6.4,6.4,0,0,0-2.15.39,7.45,7.45,0,0,0-1.94,1,9.64,9.64,0,0,0-2.53,3,13.29,13.29,0,0,0-1.36,3.72,19.46,19.46,0,0,0-.41,3.91,17.46,17.46,0,0,0,.5,4.15,11.54,11.54,0,0,0,1.55,3.64,7.88,7.88,0,0,0,2.75,2.6,8.23,8.23,0,0,0,4.12,1,10,10,0,0,0,2.29-.3,13.55,13.55,0,0,0,2.19-.69,8.77,8.77,0,0,0,2-1.18,10.24,10.24,0,0,0,1.65-1.64,3.49,3.49,0,0,0,.3-.42l.48-.71a3,3,0,0,1,.32-.42.49.49,0,0,1,.39-.21C58.27,21.18,58.4,21.32,58.4,21.6Z"/>
      <path class="cls-1" d="M74.48,12.5a1,1,0,0,1-.27.66.82.82,0,0,1-.65.3.83.83,0,0,1-.76-.36,3.81,3.81,0,0,1-.39-.81,2.36,2.36,0,0,0-.47-.81,1.39,1.39,0,0,0-1.06-.35h-.26l-.27,0a2.87,2.87,0,0,0-1.3.74,11.76,11.76,0,0,0-1.36,1.5,11.64,11.64,0,0,0-1.07,1.71,3.73,3.73,0,0,0-.46,1.41c0,.38,0,.75,0,1.11v1.08c0,1.27,0,2.54,0,3.81s0,2.52,0,3.77a.77.77,0,0,0,.44.75,1.83,1.83,0,0,0,.9.23c.23,0,.47,0,.7,0s.47,0,.71,0a.25.25,0,0,1,.24.16.72.72,0,0,1,.07.3.5.5,0,0,1-.56.57c-.7,0-1.41,0-2.11-.06s-1.41-.05-2.12-.05-1.46,0-2.2.07-1.49.07-2.24.07c-.1,0-.16-.07-.2-.21a1.82,1.82,0,0,1,0-.35c0-.24.1-.37.28-.39a3.1,3.1,0,0,1,.81,0,7.54,7.54,0,0,0,.78,0,1.51,1.51,0,0,0,.86-.23.94.94,0,0,0,.37-.79c0-.75.08-1.52.09-2.29s0-1.56,0-2.33V18.25c0-1,0-2,0-3a29.45,29.45,0,0,0-.12-3,1.33,1.33,0,0,0-.39-1,1.6,1.6,0,0,0-1.06-.3,3,3,0,0,0-.58.06,4.07,4.07,0,0,1-.61.05c-.19,0-.29-.14-.29-.42a.38.38,0,0,1,.25-.36,4.21,4.21,0,0,1,.74-.15l.74-.09,1.9-.36c.64-.11,1.27-.25,1.91-.42a.78.78,0,0,1,.46.39,2.92,2.92,0,0,1,.1.77c0,.43,0,.92,0,1.47v2.55A25,25,0,0,1,67.78,12,9.12,9.12,0,0,1,70,9.93a5.16,5.16,0,0,1,2.85-.81A1.08,1.08,0,0,1,74,9.65a3.7,3.7,0,0,1,.32,1.23q.08.39.12.81A6,6,0,0,1,74.48,12.5Z"/>
      <path class="cls-1" d="M95,19a9.17,9.17,0,0,1-4.64,8.11,9.36,9.36,0,0,1-4.77,1.23A8.91,8.91,0,0,1,81,27.08a9.4,9.4,0,0,1-3.31-3.35,9.06,9.06,0,0,1-1.24-4.67,10.16,10.16,0,0,1,1.2-4.88,9.72,9.72,0,0,1,3.3-3.61,8.61,8.61,0,0,1,4.85-1.38,9.66,9.66,0,0,1,5,1.25A8.11,8.11,0,0,1,94,13.9,11.41,11.41,0,0,1,95,19Zm-3.63-.11a21.09,21.09,0,0,0-.23-3A10.35,10.35,0,0,0,90.32,13a5.13,5.13,0,0,0-1.78-2.1,5.24,5.24,0,0,0-3-.79,4.61,4.61,0,0,0-2.87.84,5.76,5.76,0,0,0-1.73,2.19A10.88,10.88,0,0,0,80.06,16,20.41,20.41,0,0,0,79.83,19a20.64,20.64,0,0,0,.23,3,8.66,8.66,0,0,0,.87,2.73,4.92,4.92,0,0,0,1.81,2,5.63,5.63,0,0,0,3.05.74,5,5,0,0,0,2.94-.77,4.94,4.94,0,0,0,1.7-2.05,9.38,9.38,0,0,0,.77-2.76A22.85,22.85,0,0,0,91.4,18.88Z"/>
      <path class="cls-1" d="M118.4,27.66c0,.31-.18.46-.53.46-.52,0-1.05,0-1.59-.05S115.2,28,114.66,28c-.8,0-1.62,0-2.45.06s-1.66.05-2.48.05c-.1,0-.16-.08-.18-.23a3.39,3.39,0,0,1,0-.37c0-.19.12-.28.36-.28h.56a2.36,2.36,0,0,1,.37,0h.37a1,1,0,0,0,1.13-1c.07-1.38.1-2.78.09-4.19s0-2.81,0-4.2V16.28c0-.54-.06-1.21-.11-2a7.69,7.69,0,0,0-.31-1.92,2.37,2.37,0,0,0-2.47-1.83,5.94,5.94,0,0,0-3.17.88,9.5,9.5,0,0,0-2.51,2.22c0,1.72,0,3.42,0,5.11v7.51a.83.83,0,0,0,.46.78,1.94,1.94,0,0,0,.91.24,2.5,2.5,0,0,0,.55-.05,3.14,3.14,0,0,1,.51,0c.09,0,.15.06.18.17a1.89,1.89,0,0,1,0,.29.67.67,0,0,1-.09.31.29.29,0,0,1-.3.18c-.51,0-1,0-1.53-.05s-1-.06-1.53-.06q-1.2,0-2.4.06c-.8,0-1.61.05-2.43.05-.12,0-.18-.08-.2-.23s0-.28,0-.37.1-.28.31-.28h.5a2.11,2.11,0,0,1,.35,0h.35a1,1,0,0,0,1.13-1c0-.33,0-.66,0-1V18.2c0-2,0-4.06,0-6.08a2.52,2.52,0,0,0-.21-1,.79.79,0,0,0-.81-.49,2.58,2.58,0,0,0-.88.14,2.94,2.94,0,0,1-.88.14c-.17,0-.25-.12-.25-.35a.47.47,0,0,1,0-.16.32.32,0,0,1,0-.13.23.23,0,0,1,.11,0,.23.23,0,0,0,.1-.05,7.91,7.91,0,0,1,1.32-.25,13,13,0,0,0,1.32-.21,7.72,7.72,0,0,0,1.17-.3,3.39,3.39,0,0,1,1.13-.19.42.42,0,0,1,.38.24,2.87,2.87,0,0,1,.29.9,11.53,11.53,0,0,1,.15,1.18q.06.6.06,1A12.87,12.87,0,0,1,105.48,11a12.23,12.23,0,0,1,2.25-1.27A5.82,5.82,0,0,1,110,9.23c2.16,0,3.63.47,4.39,1.42a7.18,7.18,0,0,1,1.15,4.5c0,1.83,0,3.66,0,5.5s0,3.66,0,5.5A.93.93,0,0,0,116,27a1.86,1.86,0,0,0,1,.23,2.71,2.71,0,0,0,.56-.05,3.38,3.38,0,0,1,.53,0,.31.31,0,0,1,.3.16A.63.63,0,0,1,118.4,27.66Z"/>
      <path class="cls-1" d="M137.36,23.89c0,.12,0,.19-.07.21a2.59,2.59,0,0,1-.51.85,7.88,7.88,0,0,1-.9.93,7.1,7.1,0,0,1-.81.65,10.43,10.43,0,0,1-2.63,1.31,9,9,0,0,1-2.9.49,10.5,10.5,0,0,1-2.67-.39,8.42,8.42,0,0,1-2.48-1.05,7.67,7.67,0,0,1-2.89-3.42,11,11,0,0,1-.92-4.41,11.43,11.43,0,0,1,1-4.83,8.2,8.2,0,0,1,3.28-3.59,11.4,11.4,0,0,1,2.29-1,8,8,0,0,1,2.44-.4,7.69,7.69,0,0,1,3.66.84,6.27,6.27,0,0,1,2.49,2.38,7.08,7.08,0,0,1,.9,3.65q0,.6-.27.78a1.5,1.5,0,0,1-.79.17q-.71,0-1.41,0L132.78,17c-.66-.05-1.31-.07-2-.07h-4.35c-.8,0-1.6,0-2.4.07,0,.37,0,.74-.07,1.09s0,.72,0,1.09a12.23,12.23,0,0,0,.31,2.7,9,9,0,0,0,1,2.57,5.83,5.83,0,0,0,1.79,1.9,4.63,4.63,0,0,0,2.65.73,9.26,9.26,0,0,0,3-.5A7.5,7.5,0,0,0,135.42,25a4.82,4.82,0,0,0,.58-.69,3.68,3.68,0,0,1,.59-.65.51.51,0,0,1,.38-.18.36.36,0,0,1,.29.14A.53.53,0,0,1,137.36,23.89Zm-4.05-8.07a21.93,21.93,0,0,0-.25-2.77,4.06,4.06,0,0,0-1-2.19A3.51,3.51,0,0,0,129.4,10a4,4,0,0,0-2.7.9,5.89,5.89,0,0,0-1.6,2.26,14.41,14.41,0,0,0-.85,2.76L126,16h1.69c.94,0,1.88,0,2.82-.05Z"/>
    </g>
    <g>
      <g>
        <path class="cls-2" d="M26.48,32.27H28a10.22,10.22,0,0,1-1.61-5.1H22.76a9.73,9.73,0,0,0,1.74,5.1Z"/>
        <path class="cls-3" d="M22.77,26.06H26.4A18.08,18.08,0,0,1,27.54,21h-3.6A17.92,17.92,0,0,0,22.77,26.06Z"/>
        <path class="cls-3" d="M30.06,14.74H26.47c-.35.9-.73,1.81-1.1,2.69s-.69,1.61-1,2.42H28c.35-.9.73-1.81,1.11-2.68S29.74,15.55,30.06,14.74Z"/>
        <path class="cls-1" d="M26.88,13.63h3.6a17.78,17.78,0,0,0,1.17-5.1H28A18,18,0,0,1,26.88,13.63Z"/>
        <path class="cls-1" d="M31.66,7.42a9.76,9.76,0,0,0-1.74-5.1H26.41A10.25,10.25,0,0,1,28,7.42Z"/>
        <path class="cls-2" d="M21.84,32.27h1.53a10.22,10.22,0,0,1-1.61-5.1H18.12a9.64,9.64,0,0,0,1.74,5.1Z"/>
        <path class="cls-3" d="M18.12,26.06h3.65A17.68,17.68,0,0,1,22.9,21H19.3A18.33,18.33,0,0,0,18.12,26.06Z"/>
        <path class="cls-4" d="M25.42,14.74H21.83c-.35.9-.74,1.81-1.11,2.69s-.68,1.61-1,2.42h3.6c.34-.9.73-1.81,1.1-2.68S25.1,15.55,25.42,14.74Z"/>
        <path class="cls-1" d="M22.24,13.63h3.6A17.5,17.5,0,0,0,27,8.53H23.38A18,18,0,0,1,22.24,13.63Z"/>
        <path class="cls-1" d="M27,7.42a9.59,9.59,0,0,0-1.74-5.1H21.77a10.25,10.25,0,0,1,1.61,5.1Z"/>
        <path class="cls-2" d="M17.2,32.27h1.53a10.22,10.22,0,0,1-1.61-5.1H13.48a9.73,9.73,0,0,0,1.74,5.1Z"/>
        <path class="cls-3" d="M13.49,26.06h3.63A18.08,18.08,0,0,1,18.26,21h-3.6A17.92,17.92,0,0,0,13.49,26.06Z"/>
        <path class="cls-3" d="M20.78,14.74H17.19c-.35.9-.74,1.81-1.11,2.69s-.68,1.61-1,2.42h3.59c.35-.9.74-1.81,1.11-2.68S20.46,15.55,20.78,14.74Z"/>
        <path class="cls-1" d="M17.6,13.63h3.6a18.18,18.18,0,0,0,1.18-5.1H18.74A18,18,0,0,1,17.6,13.63Z"/>
        <path class="cls-1" d="M22.38,7.42a9.67,9.67,0,0,0-1.74-5.1H17.13a10.25,10.25,0,0,1,1.61,5.1Z"/>
      </g>
      <path class="cls-1" d="M9.34,28.26H9.17a2.3,2.3,0,0,1-1.69-.67,2.25,2.25,0,0,1-.3-2.32A21.5,21.5,0,0,1,9,21.64a22.2,22.2,0,0,1,1.71-2.41l.25-.33.1-.11,0-.06h0l-.52-.37-.16-.11a.55.55,0,0,1-.22-.29.53.53,0,0,1,.2-.58,2.82,2.82,0,0,1,.31-.21,3.41,3.41,0,0,1-.38-.38,2.48,2.48,0,0,1-.41-.52,1.42,1.42,0,0,1-.21-.67,1.1,1.1,0,0,0-.06-.37C9.5,15,9.41,15,9.38,15a1,1,0,0,0-.32,0,17.08,17.08,0,0,0-1.67.54,11,11,0,0,1-2.91.75,1.4,1.4,0,0,1-.81-.14,1.12,1.12,0,0,1-.55-.86,2.14,2.14,0,0,1,.09-.83,7.65,7.65,0,0,1,1.63-2.74A9.09,9.09,0,0,1,9.62,8.46a4.29,4.29,0,0,1,.83-.1l-.14-.29a2.76,2.76,0,0,1-.38-1.7,3.52,3.52,0,0,1,.69-1.48L11.67,3.5a2.69,2.69,0,0,1,.71-.72,2.45,2.45,0,0,1,1.4-.32l1.2,0h0a.42.42,0,0,1,.42.41.43.43,0,0,1-.41.43l-1.23,0a1.69,1.69,0,0,0-.94.18,2.23,2.23,0,0,0-.49.52L11.29,5.39a2.59,2.59,0,0,0-.53,1.11,2,2,0,0,0,.31,1.2,4.32,4.32,0,0,1,.38,1,.41.41,0,0,1-.1.35.39.39,0,0,1-.33.15,5.12,5.12,0,0,0-1.23.07,8.35,8.35,0,0,0-4.31,3A7,7,0,0,0,4,14.72a1.35,1.35,0,0,0-.07.49.37.37,0,0,0,.13.24.73.73,0,0,0,.34,0,9.84,9.84,0,0,0,2.68-.7,15,15,0,0,1,1.76-.56,1.53,1.53,0,0,1,.66-.05,1.15,1.15,0,0,1,.84.71,1.93,1.93,0,0,1,.13.67.72.72,0,0,0,.1.29,2.06,2.06,0,0,0,.29.37,3.23,3.23,0,0,0,.51.47h0a.48.48,0,0,1,.29.09.46.46,0,0,1,.19.38c0,.29-.28.43-.52.56l-.16.09h0l.3.21c.43.28.55.59.41.93a1.68,1.68,0,0,1-.26.38l-.07.09-.26.33a22.59,22.59,0,0,0-1.65,2.32A19.71,19.71,0,0,0,8,25.55,1.49,1.49,0,0,0,8.1,27a1.5,1.5,0,0,0,1.09.4,5.88,5.88,0,0,0,2.2-.35.42.42,0,0,1,.29.79A6.65,6.65,0,0,1,9.34,28.26Zm2.11-10.73Zm0-.82Z"/>
    </g>
  </g>
</svg>
